<?xml version="1.0" encoding="UTF-8"?>
<svg version="1.1" xmlns="http://www.w3.org/2000/svg" width="256" height="256">
<path d="M0 0 C0.7085614 0.00086609 1.4171228 0.00173218 2.14715576 0.00262451 C10.86588621 0.03008706 19.51011297 0.36381631 28.1875 1.25 C28.1875 1.91 28.1875 2.57 28.1875 3.25 C29.5075 2.92 30.8275 2.59 32.1875 2.25 C32.1875 2.91 32.1875 3.57 32.1875 4.25 C33.1775 3.92 34.1675 3.59 35.1875 3.25 C38.60521186 3.68816819 41.15203641 4.68627633 44.1875 6.25 C45.198125 6.58 46.20875 6.91 47.25 7.25 C50.1875 8.25 50.1875 8.25 53.1875 10.25 C56.41576289 12.04347939 59.79536741 13.1988998 63.28515625 14.37109375 C65.41514314 15.35517393 66.59089255 16.55388727 68.1875 18.25 C68.8475 18.58 69.5075 18.91 70.1875 19.25 C76.1875 23.25 76.1875 23.25 78.1875 25.25 C78.8475 25.58 79.5075 25.91 80.1875 26.25 C81.1875 27.25 82.1875 28.25 83.1875 29.25 C84.1775 29.91 85.1675 30.57 86.1875 31.25 C87.17702252 32.34766706 88.13379789 33.47541739 89.0625 34.625 C92.00707694 38.14091277 95.04121712 41.17685856 99.1875 43.25 C99.4040625 44.24 99.4040625 44.24 99.625 45.25 C99.810625 45.91 99.99625 46.57 100.1875 47.25 C101.1775 47.58 102.1675 47.91 103.1875 48.25 C103.875 50.3125 103.875 50.3125 104.1875 52.25 C104.8475 52.25 105.5075 52.25 106.1875 52.25 C106.5175 53.24 106.8475 54.23 107.1875 55.25 C107.8475 56.24 108.5075 57.23 109.1875 58.25 C109.5175 59.24 109.8475 60.23 110.1875 61.25 C110.80238281 61.84941406 111.41726562 62.44882812 112.05078125 63.06640625 C114.51558777 65.58528531 115.82562615 68.02900781 117.375 71.1875 C118.13876953 72.71697266 118.13876953 72.71697266 118.91796875 74.27734375 C120.07840148 76.99454161 120.7029531 79.35250744 121.1875 82.25 C121.84188441 84.25405227 122.50810826 86.25428677 123.1875 88.25 C123.52083333 89.58333333 123.85416667 90.91666667 124.1875 92.25 C124.55875 93.28125 124.93 94.3125 125.3125 95.375 C126.1875 98.25 126.1875 98.25 125.1875 100.25 C125.8475 100.58 126.5075 100.91 127.1875 101.25 C128.63309647 110.20720848 128.33959647 119.34204349 128.31787109 128.39233398 C128.31247795 131.07346154 128.317859 133.75442419 128.32421875 136.43554688 C128.32355849 138.15104203 128.32227842 139.86653709 128.3203125 141.58203125 C128.32334885 142.77588188 128.32334885 142.77588188 128.32644653 143.99385071 C128.2943017 151.62331841 128.2943017 151.62331841 127.1875 155.25 C126.5275 155.58 125.8675 155.91 125.1875 156.25 C125.5175 157.24 125.8475 158.23 126.1875 159.25 C125.58888258 161.60171131 124.91825648 163.9359378 124.1875 166.25 C123.84614073 167.58130115 123.50824044 168.91358148 123.1875 170.25 C122.5275 170.25 121.8675 170.25 121.1875 170.25 C121.5175 171.24 121.8475 172.23 122.1875 173.25 C121.24189935 175.2762871 120.23372875 177.27379014 119.1875 179.25 C118.836875 180.3225 118.48625 181.395 118.125 182.5 C117.1875 185.25 117.1875 185.25 115.1875 187.25 C114.47341666 189.23356483 113.80132258 191.23315437 113.1875 193.25 C112.5275 193.25 111.8675 193.25 111.1875 193.25 C111.001875 194.4565625 111.001875 194.4565625 110.8125 195.6875 C110.60625 196.533125 110.4 197.37875 110.1875 198.25 C109.5275 198.58 108.8675 198.91 108.1875 199.25 C107.8575 199.91 107.5275 200.57 107.1875 201.25 C105.1875 204.25 105.1875 204.25 103.1875 206.25 C102.8575 206.91 102.5275 207.57 102.1875 208.25 C101.1875 209.25 100.1875 210.25 99.1875 211.25 C98.5275 212.24 97.8675 213.23 97.1875 214.25 C96.06920692 215.2605058 94.92077232 216.23829319 93.75 217.1875 C91.15195548 219.36060556 89.11892769 221.44942985 87.1875 224.25 C85.09567031 226.6033084 84.28202103 227.21849299 81.1875 228.25 C80.8575 229.24 80.5275 230.23 80.1875 231.25 C78.125 231.9375 78.125 231.9375 76.1875 232.25 C76.1875 232.91 76.1875 233.57 76.1875 234.25 C75.1975 234.58 74.2075 234.91 73.1875 235.25 C70.23927834 237.13487835 70.23927834 237.13487835 67.9375 239.14453125 C64.86331859 241.49820139 61.647633 243.24070401 58.1875 244.9375 C57.28257812 245.39866211 57.28257812 245.39866211 56.359375 245.86914062 C52.97863099 247.54848847 49.91013834 248.66289413 46.1875 249.25 C44.18344773 249.90438441 42.18321323 250.57060826 40.1875 251.25 C38.85416667 251.58333333 37.52083333 251.91666667 36.1875 252.25 C34.82129517 252.72602661 34.82129517 252.72602661 33.42749023 253.21166992 C23.47079517 256.40252397 13.12462842 256.54707377 2.7668457 256.45581055 C0.6237393 256.43748922 -1.51893242 256.43530236 -3.66210938 256.43554688 C-11.75096459 256.414265 -19.76119612 256.08441659 -27.8125 255.25 C-27.8125 254.59 -27.8125 253.93 -27.8125 253.25 C-28.8025 253.58 -29.7925 253.91 -30.8125 254.25 C-33.16421131 253.65138258 -35.4984378 252.98075648 -37.8125 252.25 C-39.14380115 251.90864073 -40.47608148 251.57074044 -41.8125 251.25 C-41.8125 250.59 -41.8125 249.93 -41.8125 249.25 C-42.8025 249.58 -43.7925 249.91 -44.8125 250.25 C-47.875 248.875 -47.875 248.875 -50.8125 247.25 C-51.4725 246.92 -52.1325 246.59 -52.8125 246.25 C-53.616875 245.816875 -53.616875 245.816875 -54.4375 245.375 C-57.81793577 243.77374095 -61.30074752 242.53764258 -64.8125 241.25 C-64.8125 240.59 -64.8125 239.93 -64.8125 239.25 C-66.0190625 239.064375 -66.0190625 239.064375 -67.25 238.875 C-68.095625 238.66875 -68.94125 238.4625 -69.8125 238.25 C-70.1425 237.59 -70.4725 236.93 -70.8125 236.25 C-71.4725 235.92 -72.1325 235.59 -72.8125 235.25 C-77.18685134 232.33376577 -80.77471426 229.17464887 -82.8125 224.25 C-83.1425 223.59 -83.4725 222.93 -83.8125 222.25 C-83.796875 219.7890625 -83.796875 219.7890625 -83.5625 216.875 C-83.49546875 215.91851562 -83.4284375 214.96203125 -83.359375 213.9765625 C-82.56648106 210.02341986 -80.60334503 208.04084503 -77.8125 205.25 C-77.52375 204.6725 -77.235 204.095 -76.9375 203.5 C-75.8125 201.25 -75.8125 201.25 -73.8125 198.375 C-71.86638206 195.33419072 -70.92333557 192.65656241 -69.8125 189.25 C-69.338125 188.651875 -68.86375 188.05375 -68.375 187.4375 C-66.75980868 185.17623215 -66.13398645 183.3864984 -65.3125 180.75 C-64.23814463 177.30310987 -62.97544866 175.13393155 -60.8125 172.25 C-60.0112409 169.97559266 -59.31351453 167.69108107 -58.65625 165.37109375 C-57.72820968 163.03810351 -56.58859948 161.97783591 -54.8125 160.25 C-54.4576046 158.25371336 -54.12671071 156.25309329 -53.8125 154.25 C-51.3185241 148.50301205 -51.3185241 148.50301205 -48.8125 147.25 C-48.668125 146.363125 -48.52375 145.47625 -48.375 144.5625 C-47.76254996 140.95584975 -46.55164284 138.45002282 -44.8125 135.25 C-43.50166265 132.71025263 -42.39378927 130.22066946 -41.3125 127.5625 C-39.8125 124.25 -39.8125 124.25 -37.8125 123.25 C-37.5959375 121.8578125 -37.5959375 121.8578125 -37.375 120.4375 C-36.77501314 117.03757447 -35.92731142 115.87236616 -33.8125 113.25 C-32.7820001 110.93137523 -31.9283821 108.58253124 -31.09375 106.1875 C-30.70703125 105.1046875 -30.70703125 105.1046875 -30.3125 104 C-30.0753125 103.31421875 -29.838125 102.6284375 -29.59375 101.921875 C-28.8125 100.25 -28.8125 100.25 -26.8125 99.25 C-26.668125 98.363125 -26.52375 97.47625 -26.375 96.5625 C-25.76306566 92.95888666 -24.64339818 90.39914486 -22.8125 87.25 C-22.1525 86.92 -21.4925 86.59 -20.8125 86.25 C-20.5959375 84.8578125 -20.5959375 84.8578125 -20.375 83.4375 C-19.8125 80.25 -19.8125 80.25 -18.4375 78.4375 C-16.33760897 75.61072361 -15.60941166 72.73552747 -14.65625 69.37109375 C-13.72921476 67.04063016 -12.60995122 65.95464803 -10.8125 64.25 C-10.44378912 62.59080104 -10.11654678 60.92225729 -9.8125 59.25 C-7.44827864 52.56788932 -7.44827864 52.56788932 -4.8125 51.25 C-4.668125 50.321875 -4.52375 49.39375 -4.375 48.4375 C-3.78617836 45.10084406 -3.13442477 43.66122957 -0.8125 41.25 C2.1875 40.25 2.1875 40.25 5.1875 41.25 C5.8888284 43.57315031 6.55235174 45.90789079 7.1875 48.25 C7.6825 48.91 8.1775 49.57 8.6875 50.25 C10.75363218 53.00484291 11.24702946 55.9583531 12.1875 59.25 C12.661875 59.86875 13.13625 60.4875 13.625 61.125 C15.68627245 63.92833053 16.40703741 66.84840822 17.43359375 70.1484375 C18.30347202 72.57327951 19.62825447 74.21620149 21.1875 76.25 C21.85416667 78.58333333 22.52083333 80.91666667 23.1875 83.25 C23.661875 83.86875 24.13625 84.4875 24.625 85.125 C26.68627245 87.92833053 27.40703741 90.84840822 28.43359375 94.1484375 C29.30347202 96.57327951 30.62825447 98.21620149 32.1875 100.25 C32.85416667 102.58333333 33.52083333 104.91666667 34.1875 107.25 C34.661875 107.86875 35.13625 108.4875 35.625 109.125 C37.68627245 111.92833053 38.40703741 114.84840822 39.43359375 118.1484375 C40.30347202 120.57327951 41.62825447 122.21620149 43.1875 124.25 C43.85416667 126.58333333 44.52083333 128.91666667 45.1875 131.25 C45.661875 131.86875 46.13625 132.4875 46.625 133.125 C48.68627245 135.92833053 49.40703741 138.84840822 50.43359375 142.1484375 C51.30347202 144.57327951 52.62825447 146.21620149 54.1875 148.25 C54.85416667 150.58333333 55.52083333 152.91666667 56.1875 155.25 C56.661875 155.86875 57.13625 156.4875 57.625 157.125 C59.26792183 159.35937369 59.8686181 161.11757336 60.6875 163.75 C61.75234623 167.16754315 62.95576551 169.4360739 65.1875 172.25 C65.91443904 174.22888961 66.58566251 176.22954558 67.1875 178.25 C67.97232359 181.20081942 67.97232359 181.20081942 69.625 183 C71.65123418 185.91777722 72.27264587 188.83454458 73.1875 192.25 C74.13728897 194.40028304 74.13728897 194.40028304 75.1875 196.25 C75.85416667 197.58333333 76.52083333 198.91666667 77.1875 200.25 C76.5275 201.24 75.8675 202.23 75.1875 203.25 C72.27915115 203.51660183 69.58611732 203.59779124 66.6796875 203.54296875 C65.83906769 203.53872391 64.99844788 203.53447906 64.13235474 203.53010559 C61.44208007 203.51328532 58.75254901 203.47562781 56.0625 203.4375 C54.24089622 203.42245745 52.41928072 203.4087683 50.59765625 203.39648438 C46.12731676 203.36337094 41.65753454 203.31156637 37.1875 203.25 C37.1875 199.62 37.1875 195.99 37.1875 192.25 C36.5275 192.25 35.8675 192.25 35.1875 192.25 C35.084375 191.5075 34.98125 190.765 34.875 190 C34.13480389 187.03921557 33.03030403 185.63028854 31.1875 183.25 C30.9709375 182.198125 30.9709375 182.198125 30.75 181.125 C30.564375 180.50625 30.37875 179.8875 30.1875 179.25 C28.8721659 178.54848848 27.53632408 177.88474075 26.1875 177.25 C25.1614266 175.93662604 24.16022675 174.60335895 23.1875 173.25 C20.20103231 171.25902154 17.59062738 170.30875074 14.1875 169.25 C14.1875 168.59 14.1875 167.93 14.1875 167.25 C13.1975 167.58 12.2075 167.91 11.1875 168.25 C10.8575 167.92 10.5275 167.59 10.1875 167.25 C7.32872091 167.01298761 4.48866703 166.82780818 1.625 166.6875 C0.41553711 166.62272461 0.41553711 166.62272461 -0.81835938 166.55664062 C-2.81618805 166.45024738 -4.8143207 166.34959112 -6.8125 166.25 C-6.8125 166.91 -6.8125 167.57 -6.8125 168.25 C-8.1325 167.92 -9.4525 167.59 -10.8125 167.25 C-10.8125 167.91 -10.8125 168.57 -10.8125 169.25 C-13.7951906 170.77448631 -16.630702 172.18940067 -19.8125 173.25 C-20.1425 173.91 -20.4725 174.57 -20.8125 175.25 C-21.451875 175.37375 -22.09125 175.4975 -22.75 175.625 C-24.95578444 176.03556044 -24.95578444 176.03556044 -25.8125 178 C-26.1425 178.7425 -26.4725 179.485 -26.8125 180.25 C-27.51375 181.095625 -28.215 181.94125 -28.9375 182.8125 C-31.11735538 185.13377389 -31.11735538 185.13377389 -30.8125 188.25 C-31.4725 188.25 -32.1325 188.25 -32.8125 188.25 C-32.4825 189.24 -32.1525 190.23 -31.8125 191.25 C-32.4725 191.25 -33.1325 191.25 -33.8125 191.25 C-33.87308594 192.03246094 -33.93367188 192.81492188 -33.99609375 193.62109375 C-34.12177734 195.13896484 -34.12177734 195.13896484 -34.25 196.6875 C-34.37181641 198.20150391 -34.37181641 198.20150391 -34.49609375 199.74609375 C-34.8125 202.25 -34.8125 202.25 -35.8125 203.25 C-37.83706532 203.3841159 -39.86597356 203.45360263 -41.89453125 203.49609375 C-43.13654297 203.52896484 -44.37855469 203.56183594 -45.65820312 203.59570312 C-48.29093406 203.65662797 -50.9237509 203.71395245 -53.55664062 203.76757812 C-54.80251953 203.80173828 -56.04839844 203.83589844 -57.33203125 203.87109375 C-59.05063354 203.90867798 -59.05063354 203.90867798 -60.80395508 203.94702148 C-63.70342753 204.23901575 -65.40269301 204.65255116 -67.8125 206.25 C-68.51187532 207.56647119 -69.17979133 208.90022151 -69.8125 210.25 C-70.8025 210.91 -71.7925 211.57 -72.8125 212.25 C-74.77953738 216.57748223 -75.16512353 219.67188959 -73.8125 224.25 C-71.03989701 226.18798263 -71.03989701 226.18798263 -68.8125 227.25 C-67.8225 228.24 -67.8225 228.24 -66.8125 229.25 C-64.49073258 230.52322729 -62.33662752 231.40862416 -59.8125 232.25 C-59.1525 232.91 -58.4925 233.57 -57.8125 234.25 C-56.4971659 234.95151152 -55.16132408 235.61525925 -53.8125 236.25 C-53.173125 236.58 -52.53375 236.91 -51.875 237.25 C-49.56013666 238.37235798 -47.20889719 239.31482061 -44.8125 240.25 C-43.9875 240.600625 -43.1625 240.95125 -42.3125 241.3125 C-39.83263186 242.32311345 -39.83263186 242.32311345 -37.1875 242.75 C-34.8125 243.25 -34.8125 243.25 -31.8125 245.25 C-15.06849073 249.80071253 4.19728335 251.52949066 21.1875 247.25 C23.70612944 246.76968445 26.2271568 246.30530616 28.75 245.84765625 C31.14753336 245.25979951 33.00373246 244.37373038 35.1875 243.25 C37.1875 242.91666667 39.1875 242.58333333 41.1875 242.25 C43.50379292 241.26733028 45.52785301 240.04578819 47.6875 238.75 C49.82579831 237.46702102 51.94624214 236.33667048 54.1875 235.25 C55.7034375 234.4765625 55.7034375 234.4765625 57.25 233.6875 C60.1875 232.25 60.1875 232.25 63.1875 231.25 C64.85833819 229.92189785 66.52479713 228.58827304 68.1875 227.25 C69.52083333 226.58333333 70.85416667 225.91666667 72.1875 225.25 C72.5175 224.59 72.8475 223.93 73.1875 223.25 C73.826875 223.12625 74.46625 223.0025 75.125 222.875 C75.805625 222.66875 76.48625 222.4625 77.1875 222.25 C77.5175 221.59 77.8475 220.93 78.1875 220.25 C78.5175 219.59 78.8475 218.93 79.1875 218.25 C79.79207031 218.11207031 80.39664063 217.97414062 81.01953125 217.83203125 C83.7379713 217.10221581 84.90901084 215.92907687 86.875 213.9375 C87.47699219 213.34324219 88.07898438 212.74898437 88.69921875 212.13671875 C90.28665107 210.12430454 90.62721365 208.70583456 91.1875 206.25 C92.52083333 205.58333333 93.85416667 204.91666667 95.1875 204.25 C95.83963292 202.22536745 95.83963292 202.22536745 96.1875 200.25 C96.8475 199.92 97.5075 199.59 98.1875 199.25 C98.85005241 197.92489518 99.49619602 196.59144848 100.125 195.25 C101.1875 193.25 101.1875 193.25 103.1875 191.25 C103.5175 190.26 103.8475 189.27 104.1875 188.25 C104.8475 187.59 105.5075 186.93 106.1875 186.25 C106.5175 185.26 106.8475 184.27 107.1875 183.25 C107.8475 182.92 108.5075 182.59 109.1875 182.25 C109.331875 181.3425 109.47625 180.435 109.625 179.5 C110.22172057 176.05228117 111.37602564 174.19364583 113.1875 171.25 C113.55192233 169.58985384 113.88722883 167.92293936 114.1875 166.25 C114.5175 165.610625 114.8475 164.97125 115.1875 164.3125 C116.4646026 161.67847588 116.79406997 159.13515352 117.1875 156.25 C117.8475 156.25 118.5075 156.25 119.1875 156.25 C118.98125 155.71375 118.775 155.1775 118.5625 154.625 C118.05352232 151.40147472 119.1539891 149.35053271 120.1875 146.25 C122.36180571 133.86591094 122.25806531 119.43630607 119.1875 107.25 C118.5849477 103.50078572 118.1875 100.05409151 118.1875 96.25 C117.5275 95.92 116.8675 95.59 116.1875 95.25 C115.83734951 93.58678518 115.50552943 91.91965451 115.1875 90.25 C114.5275 89.26 113.8675 88.27 113.1875 87.25 C112.84596063 85.58499557 112.51300502 83.91821323 112.1875 82.25 C110.32415122 78.14018399 107.82650891 74.40296872 105.4296875 70.58984375 C104.1875 68.25 104.1875 68.25 104.1875 65.25 C102.54261706 63.56183067 100.87412458 61.89646685 99.1875 60.25 C98.03344081 58.24558141 97.19211413 56.26120573 96.3125 54.125 C95.31887391 52.08141079 95.31887391 52.08141079 93.125 51.25 C92.485625 50.92 91.84625 50.59 91.1875 50.25 C91.07148438 49.66605469 90.95546875 49.08210938 90.8359375 48.48046875 C89.92867877 45.35971734 88.16955369 43.83452125 85.875 41.5625 C85.09511719 40.77488281 84.31523437 39.98726562 83.51171875 39.17578125 C81.19961181 37.2600355 80.00103063 36.91456463 77.1875 36.25 C76.8575 35.26 76.5275 34.27 76.1875 33.25 C74.30433841 32.14163577 74.30433841 32.14163577 72.1875 31.25 C69.1875 29.25 69.1875 29.25 67.1875 27.25 C66.1975 26.92 65.2075 26.59 64.1875 26.25 C63.1975 25.26 63.1975 25.26 62.1875 24.25 C59.86573258 22.97677271 57.71162752 22.09137584 55.1875 21.25 C54.8575 20.59 54.5275 19.93 54.1875 19.25 C52.82625 19.0334375 52.82625 19.0334375 51.4375 18.8125 C47.98978117 18.21577943 46.13114583 17.06147436 43.1875 15.25 C41.52735384 14.88557767 39.86043936 14.55027117 38.1875 14.25 C37.27097656 13.78787109 37.27097656 13.78787109 36.3359375 13.31640625 C18.27111084 4.3496832 -6.21063427 5.73573645 -25.48828125 9.81640625 C-27.8125 10.25 -27.8125 10.25 -31.8125 10.25 C-32.1425 10.91 -32.4725 11.57 -32.8125 12.25 C-34.46864657 12.63218767 -36.13707024 12.96395102 -37.8125 13.25 C-38.4725 13.58 -39.1325 13.91 -39.8125 14.25 C-40.8025 13.755 -40.8025 13.755 -41.8125 13.25 C-42.1425 13.91 -42.4725 14.57 -42.8125 15.25 C-45.41347829 17.03352797 -47.73944459 18.22668444 -50.75 19.1875 C-53.96618541 20.15959354 -53.96618541 20.15959354 -57 22.375 C-59.8125 24.25 -59.8125 24.25 -62.8125 24.25 C-64.50066933 25.89488294 -66.16603315 27.56337542 -67.8125 29.25 C-69.81691859 30.40405919 -71.80129427 31.24538587 -73.9375 32.125 C-75.98108921 33.11862609 -75.98108921 33.11862609 -76.8125 35.3125 C-77.1425 35.951875 -77.4725 36.59125 -77.8125 37.25 C-78.39644531 37.36601563 -78.98039062 37.48203125 -79.58203125 37.6015625 C-82.70278266 38.50882123 -84.22797875 40.26794631 -86.5 42.5625 C-87.28761719 43.34238281 -88.07523438 44.12226562 -88.88671875 44.92578125 C-90.8024645 47.23788819 -91.14793537 48.43646937 -91.8125 51.25 C-92.8025 51.58 -93.7925 51.91 -94.8125 52.25 C-95.92086423 54.13316159 -95.92086423 54.13316159 -96.8125 56.25 C-98.8125 59.25 -98.8125 59.25 -100.8125 61.25 C-101.1425 62.24 -101.4725 63.23 -101.8125 64.25 C-102.8025 65.24 -102.8025 65.24 -103.8125 66.25 C-105.08572729 68.57176742 -105.97112416 70.72587248 -106.8125 73.25 C-107.8025 73.745 -107.8025 73.745 -108.8125 74.25 C-109.0290625 75.61125 -109.0290625 75.61125 -109.25 77 C-109.84672057 80.44771883 -111.00102564 82.30635417 -112.8125 85.25 C-113.17692233 86.91014616 -113.51222883 88.57706064 -113.8125 90.25 C-114.13089844 90.87132813 -114.44929688 91.49265625 -114.77734375 92.1328125 C-115.83870039 94.30358721 -116.34232806 96.19904641 -116.8125 98.5625 C-117.38854163 101.34745716 -118.03252355 103.96184091 -118.875 106.6875 C-122.14538459 119.11496145 -123.78389313 141.30721374 -117.8125 153.25 C-118.1425 154.24 -118.4725 155.23 -118.8125 156.25 C-118.1525 156.58 -117.4925 156.91 -116.8125 157.25 C-117.1425 158.24 -117.4725 159.23 -117.8125 160.25 C-117.1525 160.58 -116.4925 160.91 -115.8125 161.25 C-115.46234951 162.91321482 -115.13052943 164.58034549 -114.8125 166.25 C-114.1525 167.24 -113.4925 168.23 -112.8125 169.25 C-112.47096063 170.91500443 -112.13800502 172.58178677 -111.8125 174.25 C-109.94915122 178.35981601 -107.45150891 182.09703128 -105.0546875 185.91015625 C-103.8125 188.25 -103.8125 188.25 -103.8125 191.25 C-102.16761706 192.93816933 -100.49912458 194.60353315 -98.8125 196.25 C-97.5625 198.4375 -97.5625 198.4375 -96.8125 200.25 C-96.3175 201.24 -96.3175 201.24 -95.8125 202.25 C-97.25 204.875 -97.25 204.875 -98.8125 207.25 C-99.410625 206.940625 -100.00875 206.63125 -100.625 206.3125 C-102.90206772 205.14790296 -102.90206772 205.14790296 -105.8125 204.25 C-106.1425 203.26 -106.4725 202.27 -106.8125 201.25 C-107.4725 200.26 -108.1325 199.27 -108.8125 198.25 C-109.1425 197.26 -109.4725 196.27 -109.8125 195.25 C-110.42738281 194.65058594 -111.04226562 194.05117187 -111.67578125 193.43359375 C-114.14058777 190.91471469 -115.45062615 188.47099219 -117 185.3125 C-117.50917969 184.29285156 -118.01835938 183.27320313 -118.54296875 182.22265625 C-119.70381248 179.50449601 -120.32936264 177.14882415 -120.8125 174.25 C-121.68068137 171.48267189 -122.51526422 168.84447156 -123.8125 166.25 C-123.3175 165.26 -123.3175 165.26 -122.8125 164.25 C-123.4725 164.25 -124.1325 164.25 -124.8125 164.25 C-124.3175 162.27 -124.3175 162.27 -123.8125 160.25 C-124.4725 160.25 -125.1325 160.25 -125.8125 160.25 C-125.3175 158.27 -125.3175 158.27 -124.8125 156.25 C-125.4725 155.92 -126.1325 155.59 -126.8125 155.25 C-128.66234013 147.53094124 -127.96599303 138.96336611 -127.94287109 131.05566406 C-127.93752708 128.88599607 -127.94283739 126.7165366 -127.94921875 124.546875 C-127.95269804 116.4060389 -127.66373961 108.35325814 -126.8125 100.25 C-126.1525 100.25 -125.4925 100.25 -124.8125 100.25 C-125.1425 99.26 -125.4725 98.27 -125.8125 97.25 C-125.21388258 94.89828869 -124.54325648 92.5640622 -123.8125 90.25 C-123.47114073 88.91869885 -123.13324044 87.58641852 -122.8125 86.25 C-122.1525 86.25 -121.4925 86.25 -120.8125 86.25 C-121.1425 85.26 -121.4725 84.27 -121.8125 83.25 C-121 81.3125 -121 81.3125 -119.8125 79.25 C-119.3175 78.26 -119.3175 78.26 -118.8125 77.25 C-118.18327815 75.9915563 -117.53940742 74.74022719 -116.875 73.5 C-115.29897107 70.16252697 -114.08297587 66.71493419 -112.8125 63.25 C-112.1525 63.25 -111.4925 63.25 -110.8125 63.25 C-110.68875 62.445625 -110.565 61.64125 -110.4375 60.8125 C-110.128125 59.5440625 -110.128125 59.5440625 -109.8125 58.25 C-108.8225 57.755 -108.8225 57.755 -107.8125 57.25 C-107.4825 56.59 -107.1525 55.93 -106.8125 55.25 C-104.8125 52.25 -104.8125 52.25 -102.8125 50.25 C-102.4825 49.59 -102.1525 48.93 -101.8125 48.25 C-101.3175 47.775625 -100.8225 47.30125 -100.3125 46.8125 C-98.56166008 45.2122647 -98.56166008 45.2122647 -97.8125 42.25 C-96.49141985 41.55937025 -95.15570306 40.89655067 -93.8125 40.25 C-92.36974392 38.98926139 -90.97473341 37.67236274 -89.625 36.3125 C-88.93019531 35.62285156 -88.23539063 34.93320312 -87.51953125 34.22265625 C-85.60511254 32.26392867 -85.60511254 32.26392867 -84.8125 29.25 C-83.47916667 28.91666667 -82.14583333 28.58333333 -80.8125 28.25 C-80.3175 26.765 -80.3175 26.765 -79.8125 25.25 C-77.75 24.5625 -77.75 24.5625 -75.8125 24.25 C-75.8125 23.59 -75.8125 22.93 -75.8125 22.25 C-74.8225 21.92 -73.8325 21.59 -72.8125 21.25 C-71.8225 20.59 -70.8325 19.93 -69.8125 19.25 C-68.8225 18.59 -67.8325 17.93 -66.8125 17.25 C-66.21566406 16.77820313 -65.61882812 16.30640625 -65.00390625 15.8203125 C-62.37502949 13.93651846 -59.64977231 12.55512315 -56.75 11.125 C-55.70714844 10.60679688 -54.66429688 10.08859375 -53.58984375 9.5546875 C-49.46611613 7.6175215 -45.1882276 6.48978949 -40.8125 5.25 C-39.17667969 4.77240234 -39.17667969 4.77240234 -37.5078125 4.28515625 C-24.95620736 0.76911464 -12.96229482 -0.02983639 0 0 Z M1.1875 53.25 C0.89875 53.9925 0.61 54.735 0.3125 55.5 C-0.8125 58.25 -0.8125 58.25 -1.75 60.0625 C-3.05492906 62.74911865 -3.98323353 65.5182981 -4.93359375 68.34765625 C-5.8125 70.25 -5.8125 70.25 -7.34765625 71.74609375 C-9.12066073 73.56637835 -9.36279368 74.77661522 -9.8125 77.25 C-10.54932398 80.63939029 -11.37422076 81.81172076 -13.8125 84.25 C-14.29726651 86.25370158 -14.77889557 88.25855096 -15.21484375 90.2734375 C-16.07327821 93.11244298 -17.97271263 94.95026578 -19.8125 97.25 C-20.44341218 99.24086647 -20.44341218 99.24086647 -20.875 101.375 C-21.84126669 105.3689023 -22.17915521 105.61665521 -24.8125 108.25 C-25.29726651 110.25370158 -25.77889557 112.25855096 -26.21484375 114.2734375 C-27.07327821 117.11244298 -28.97271263 118.95026578 -30.8125 121.25 C-31.44341218 123.24086647 -31.44341218 123.24086647 -31.875 125.375 C-32.84126669 129.3689023 -33.17915521 129.61665521 -35.8125 132.25 C-36.29726651 134.25370158 -36.77889557 136.25855096 -37.21484375 138.2734375 C-38.07327821 141.11244298 -39.97271263 142.95026578 -41.8125 145.25 C-42.44341218 147.24086647 -42.44341218 147.24086647 -42.875 149.375 C-43.81024352 153.2406732 -44.11549271 153.77774331 -46.8125 156.25 C-47.54330266 158.22746603 -48.20671747 160.23072489 -48.8125 162.25 C-49.99397763 165.35137879 -51.32995612 168.28491223 -52.8125 171.25 C-53.286875 172.405 -53.76125 173.56 -54.25 174.75 C-55.8125 178.25 -55.8125 178.25 -57.375 180.3125 C-59.22191691 182.80182279 -59.93200407 185.29404939 -60.8125 188.25 C-61.65005224 190.76265671 -62.60438304 192.90927339 -63.8125 195.25 C-64.3075 196.24 -64.3075 196.24 -64.8125 197.25 C-56.8925 197.25 -48.9725 197.25 -40.8125 197.25 C-39.45848005 192.51093018 -38.33775776 188.06987805 -37.47265625 183.265625 C-36.69514 180.89167006 -35.66161845 179.89103351 -33.8125 178.25 C-32.2626489 176.24810899 -30.79361145 174.2220778 -29.375 172.125 C-27.65801088 170.06461306 -26.19412298 169.40239821 -23.8125 168.25 C-22.8225 166.765 -22.8225 166.765 -21.8125 165.25 C-20.15235384 164.88557767 -18.48543936 164.55027117 -16.8125 164.25 C-16.4825 163.59 -16.1525 162.93 -15.8125 162.25 C-3.54093753 160.1038523 14.67810171 158.48218602 25.40625 165.75390625 C27.1875 167.25 27.1875 167.25 28.75 168.875 C30.25384101 170.50946476 30.25384101 170.50946476 33.1875 171.25 C33.54162344 172.57796291 33.87271554 173.91216607 34.1875 175.25 C35.16503644 176.27196992 36.1680881 177.26979625 37.1875 178.25 C40.21752186 182.85563323 42.11515492 187.02079858 42.75 192.5 C42.76987411 196.03917514 42.76987411 196.03917514 44.1875 197.25 C45.89522358 197.33713831 47.60648649 197.35700007 49.31640625 197.34765625 C50.86811523 197.34282227 50.86811523 197.34282227 52.45117188 197.33789062 C53.53978516 197.32951172 54.62839844 197.32113281 55.75 197.3125 C56.84248047 197.30798828 57.93496094 197.30347656 59.06054688 197.29882812 C61.76958495 197.28699826 64.47851599 197.27051543 67.1875 197.25 C66.10805989 190.93146895 66.10805989 190.93146895 62.625 185.75 C60.68002735 183.72046332 60.64477769 181.99366611 60.1875 179.25 C59.10209633 175.48282876 59.10209633 175.48282876 56.1875 173.25 C56.1875 172.26 56.1875 171.27 56.1875 170.25 C55.5275 169.92 54.8675 169.59 54.1875 169.25 C53.85416667 167.25 53.52083333 165.25 53.1875 163.25 C52.5275 162.92 51.8675 162.59 51.1875 162.25 C51.1875 161.26 51.1875 160.27 51.1875 159.25 C50.5275 158.92 49.8675 158.59 49.1875 158.25 C49.043125 157.30125 48.89875 156.3525 48.75 155.375 C48.14469089 152.01217163 47.58832453 151.44205718 45.1875 149.25 C45.1875 148.26 45.1875 147.27 45.1875 146.25 C44.5275 145.92 43.8675 145.59 43.1875 145.25 C42.85416667 143.25 42.52083333 141.25 42.1875 139.25 C41.5275 138.92 40.8675 138.59 40.1875 138.25 C39.81878912 136.59080104 39.49154678 134.92225729 39.1875 133.25 C38.27449538 130.51098615 37.61191081 128.67441081 35.5625 126.625 C35.10875 126.17125 34.655 125.7175 34.1875 125.25 C34.1875 124.26 34.1875 123.27 34.1875 122.25 C33.5275 121.92 32.8675 121.59 32.1875 121.25 C31.85416667 119.25 31.52083333 117.25 31.1875 115.25 C30.5275 114.92 29.8675 114.59 29.1875 114.25 C29.1875 113.26 29.1875 112.27 29.1875 111.25 C28.5275 110.92 27.8675 110.59 27.1875 110.25 C27.06375 109.3425 26.94 108.435 26.8125 107.5 C26.43130887 104.15672836 26.43130887 104.15672836 24.1875 101.75 C21.8382608 98.813451 21.7954362 96.8976172 21.1875 93.25 C20.56875 92.5075 19.95 91.765 19.3125 91 C16.72996916 87.65790127 15.9892157 84.61353375 14.99609375 80.5546875 C14.10922546 78.02689866 13.06470097 77.09234578 11.1875 75.25 C10.53833485 73.23758803 10.19038631 71.2658747 9.8125 69.1875 C9.32558523 67.16231686 9.32558523 67.16231686 7.72265625 65.8203125 C5.70262649 63.75402252 5.33422799 61.90517373 4.625 59.125 C3.98837378 56.49652669 3.98837378 56.49652669 3.1875 54.25 C2.1975 53.755 2.1975 53.755 1.1875 53.25 Z " fill="#0D88C9" transform="translate(127.8125,-0.25)"/>
<path d="M0 0 C4.28994481 2.46996822 5.48720121 5.46160362 7 10 C7.47308594 10.61875 7.94617188 11.2375 8.43359375 11.875 C10.13318636 14.18068174 11.05522402 16.3248055 12.0625 19 C13.23835122 22.0978249 14.5141617 25.040654 16 28 C16.495 29.485 16.495 29.485 17 31 C17.680625 31.8971875 17.680625 31.8971875 18.375 32.8125 C21.60004734 37.15390987 23.37201153 41.88346479 25 47 C25.33 47.66 25.66 48.32 26 49 C25.0625 51.125 25.0625 51.125 24 53 C19.55932381 52.4836423 16.75431845 51.3711485 13 49 C10.80869466 48.30420546 10.80869466 48.30420546 9 48 C9 47.34 9 46.68 9 46 C8.01 46.33 7.02 46.66 6 47 C5.67 46.67 5.34 46.34 5 46 C3.35659133 45.90145345 1.7088539 45.87027589 0.0625 45.875 C-0.83339844 45.87242187 -1.72929688 45.86984375 -2.65234375 45.8671875 C-5.02155555 45.84578587 -5.02155555 45.84578587 -7 47 C-7.66 46.67 -8.32 46.34 -9 46 C-9 46.66 -9 47.32 -9 48 C-10.051875 48.28875 -11.10375 48.5775 -12.1875 48.875 C-15.23386369 49.77392699 -18.06512088 50.81018414 -21 52 C-23.12589028 52.60739722 -24.79124283 53 -27 53 C-26.55623178 48.38481048 -26.11728373 45.47697031 -23 42 C-20.74428729 39.25901446 -20.74428729 39.25901446 -19.5 36 C-19 34 -19 34 -17.62890625 32.2109375 C-15.83803749 29.78016599 -14.66823873 27.37969422 -13.4375 24.625 C-13.02371094 23.70976563 -12.60992187 22.79453125 -12.18359375 21.8515625 C-10.96138728 19.01001053 -10.96138728 19.01001053 -10.03125 16.04296875 C-8.9266597 12.78359056 -7.57498624 9.7778981 -6.0625 6.6875 C-5.55847656 5.63949219 -5.05445312 4.59148437 -4.53515625 3.51171875 C-3 1 -3 1 0 0 Z M0 14 C-0.35304199 14.71655762 -0.70608398 15.43311523 -1.06982422 16.17138672 C-2.66738081 19.4080017 -4.27110633 22.64152099 -5.875 25.875 C-6.43058594 27.00292969 -6.98617187 28.13085938 -7.55859375 29.29296875 C-8.09355469 30.36933594 -8.62851563 31.44570312 -9.1796875 32.5546875 C-9.67194824 33.54968262 -10.16420898 34.54467773 -10.67138672 35.56982422 C-12 38 -12 38 -14 40 C-10.56207425 41.14597525 -9.48184185 40.70311053 -6 40 C-3.2595909 39.90710478 -0.55147794 39.86012772 2.1875 39.875 C2.91130859 39.87113281 3.63511719 39.86726563 4.38085938 39.86328125 C9.74652778 39.87326389 9.74652778 39.87326389 12 41 C11.01273871 35.40551936 9.15814194 30.24120185 7 25 C6.34 25 5.68 25 5 25 C5.33 24.01 5.66 23.02 6 22 C4.69254251 20.31295807 3.35827971 18.64639965 2 17 C2 16.01 2 15.02 2 14 C1.34 14 0.68 14 0 14 Z M13 39 C14 41 14 41 14 41 Z " fill="#0D84C3" transform="translate(129,104)"/>
<path d="M0 0 C0.66 0.66 1.32 1.32 2 2 C-3.33333333 7.33333333 -8.66666667 12.66666667 -14 18 C-13.75 15.125 -13.75 15.125 -13 12 C-11 10.875 -11 10.875 -9 10 C-8.835 9.34 -8.67 8.68 -8.5 8 C-8.335 7.34 -8.17 6.68 -8 6 C-6.1875 5 -6.1875 5 -4 4 C-2.62913085 2.70529025 -1.28659163 1.37849103 0 0 Z " fill="#04A9D3" transform="translate(38,36)"/>
<path d="M0 0 C4.5076467 0.53031138 7.41954788 2.25221116 11 5 C11 5.66 11 6.32 11 7 C11.928125 7.4640625 11.928125 7.4640625 12.875 7.9375 C14.25 8.625 15.625 9.3125 17 10 C16.67 10.99 16.34 11.98 16 13 C15.01 12.67 14.02 12.34 13 12 C12.67 11.01 12.34 10.02 12 9 C10.11683841 7.89163577 10.11683841 7.89163577 8 7 C5 5 5 5 3 3 C2.01 2.67 1.02 2.34 0 2 C0 1.34 0 0.68 0 0 Z " fill="#0284A0" transform="translate(192,24)"/>
<path d="M0 0 C1.32176485 0.90325616 2.63215066 1.82317903 3.9375 2.75 C4.66839844 3.26046875 5.39929687 3.7709375 6.15234375 4.296875 C8.20805399 6.19177915 8.62669176 7.27425729 9 10 C4.96909102 7.98454551 2.62064018 5.61467611 0 2 C0 1.34 0 0.68 0 0 Z " fill="#176FBA" transform="translate(48,226)"/>
<path d="M0 0 C0 0.66 0 1.32 0 2 C-2.31 2.33 -4.62 2.66 -7 3 C-7.33 2.34 -7.66 1.68 -8 1 C-3.375 -1.125 -3.375 -1.125 0 0 Z " fill="#007084" transform="translate(88,6)"/>
<path d="M0 0 C2 1 2 1 2 1 Z " fill="#000000" transform="translate(70,234)"/>
<path d="" fill="#000000" transform="translate(0,0)"/>
<path d="" fill="#000000" transform="translate(0,0)"/>
<path d="" fill="#000000" transform="translate(0,0)"/>
<path d="" fill="#000000" transform="translate(0,0)"/>
<path d="" fill="#000000" transform="translate(0,0)"/>
<path d="" fill="#000000" transform="translate(0,0)"/>
<path d="" fill="#000000" transform="translate(0,0)"/>
<path d="" fill="#000000" transform="translate(0,0)"/>
<path d="" fill="#000000" transform="translate(0,0)"/>
<path d="" fill="#000000" transform="translate(0,0)"/>
<path d="" fill="#000000" transform="translate(0,0)"/>
<path d="" fill="#000000" transform="translate(0,0)"/>
<path d="" fill="#000000" transform="translate(0,0)"/>
<path d="" fill="#000000" transform="translate(0,0)"/>
<path d="" fill="#000000" transform="translate(0,0)"/>
<path d="" fill="#000000" transform="translate(0,0)"/>
<path d="" fill="#000000" transform="translate(0,0)"/>
<path d="" fill="#000000" transform="translate(0,0)"/>
<path d="" fill="#000000" transform="translate(0,0)"/>
<path d="" fill="#000000" transform="translate(0,0)"/>
<path d="" fill="#000000" transform="translate(0,0)"/>
<path d="" fill="#000000" transform="translate(0,0)"/>
<path d="" fill="#000000" transform="translate(0,0)"/>
<path d="" fill="#000000" transform="translate(0,0)"/>
<path d="" fill="#000000" transform="translate(0,0)"/>
<path d="" fill="#000000" transform="translate(0,0)"/>
<path d="" fill="#000000" transform="translate(0,0)"/>
<path d="" fill="#000000" transform="translate(0,0)"/>
<path d="" fill="#000000" transform="translate(0,0)"/>
<path d="" fill="#000000" transform="translate(0,0)"/>
<path d="" fill="#000000" transform="translate(0,0)"/>
<path d="" fill="#000000" transform="translate(0,0)"/>
<path d="" fill="#000000" transform="translate(0,0)"/>
<path d="" fill="#000000" transform="translate(0,0)"/>
<path d="" fill="#000000" transform="translate(0,0)"/>
<path d="" fill="#000000" transform="translate(0,0)"/>
<path d="" fill="#000000" transform="translate(0,0)"/>
<path d="" fill="#000000" transform="translate(0,0)"/>
<path d="" fill="#000000" transform="translate(0,0)"/>
<path d="" fill="#000000" transform="translate(0,0)"/>
<path d="" fill="#000000" transform="translate(0,0)"/>
<path d="" fill="#000000" transform="translate(0,0)"/>
<path d="" fill="#000000" transform="translate(0,0)"/>
<path d="" fill="#000000" transform="translate(0,0)"/>
<path d="" fill="#000000" transform="translate(0,0)"/>
<path d="" fill="#000000" transform="translate(0,0)"/>
<path d="" fill="#000000" transform="translate(0,0)"/>
<path d="" fill="#000000" transform="translate(0,0)"/>
<path d="" fill="#000000" transform="translate(0,0)"/>
<path d="" fill="#000000" transform="translate(0,0)"/>
<path d="" fill="#000000" transform="translate(0,0)"/>
<path d="" fill="#000000" transform="translate(0,0)"/>
<path d="" fill="#000000" transform="translate(0,0)"/>
<path d="" fill="#000000" transform="translate(0,0)"/>
<path d="" fill="#000000" transform="translate(0,0)"/>
<path d="" fill="#000000" transform="translate(0,0)"/>
<path d="" fill="#000000" transform="translate(0,0)"/>
<path d="" fill="#000000" transform="translate(0,0)"/>
<path d="" fill="#000000" transform="translate(0,0)"/>
<path d="" fill="#000000" transform="translate(0,0)"/>
<path d="" fill="#000000" transform="translate(0,0)"/>
<path d="" fill="#000000" transform="translate(0,0)"/>
<path d="" fill="#000000" transform="translate(0,0)"/>
<path d="" fill="#000000" transform="translate(0,0)"/>
<path d="" fill="#000000" transform="translate(0,0)"/>
<path d="" fill="#000000" transform="translate(0,0)"/>
<path d="" fill="#000000" transform="translate(0,0)"/>
<path d="" fill="#000000" transform="translate(0,0)"/>
<path d="" fill="#000000" transform="translate(0,0)"/>
<path d="" fill="#000000" transform="translate(0,0)"/>
<path d="" fill="#000000" transform="translate(0,0)"/>
<path d="" fill="#000000" transform="translate(0,0)"/>
<path d="" fill="#000000" transform="translate(0,0)"/>
<path d="" fill="#000000" transform="translate(0,0)"/>
<path d="" fill="#000000" transform="translate(0,0)"/>
<path d="" fill="#000000" transform="translate(0,0)"/>
<path d="" fill="#000000" transform="translate(0,0)"/>
<path d="" fill="#000000" transform="translate(0,0)"/>
<path d="" fill="#000000" transform="translate(0,0)"/>
<path d="" fill="#000000" transform="translate(0,0)"/>
<path d="" fill="#000000" transform="translate(0,0)"/>
<path d="" fill="#000000" transform="translate(0,0)"/>
<path d="" fill="#000000" transform="translate(0,0)"/>
<path d="" fill="#000000" transform="translate(0,0)"/>
<path d="" fill="#000000" transform="translate(0,0)"/>
<path d="" fill="#000000" transform="translate(0,0)"/>
<path d="" fill="#000000" transform="translate(0,0)"/>
<path d="" fill="#000000" transform="translate(0,0)"/>
<path d="" fill="#000000" transform="translate(0,0)"/>
<path d="" fill="#000000" transform="translate(0,0)"/>
<path d="" fill="#000000" transform="translate(0,0)"/>
<path d="" fill="#000000" transform="translate(0,0)"/>
<path d="" fill="#000000" transform="translate(0,0)"/>
<path d="" fill="#000000" transform="translate(0,0)"/>
<path d="" fill="#000000" transform="translate(0,0)"/>
<path d="" fill="#000000" transform="translate(0,0)"/>
<path d="" fill="#000000" transform="translate(0,0)"/>
<path d="" fill="#000000" transform="translate(0,0)"/>
<path d="" fill="#000000" transform="translate(0,0)"/>
<path d="" fill="#000000" transform="translate(0,0)"/>
<path d="" fill="#000000" transform="translate(0,0)"/>
<path d="" fill="#000000" transform="translate(0,0)"/>
<path d="" fill="#000000" transform="translate(0,0)"/>
<path d="" fill="#000000" transform="translate(0,0)"/>
<path d="" fill="#000000" transform="translate(0,0)"/>
<path d="" fill="#000000" transform="translate(0,0)"/>
<path d="" fill="#000000" transform="translate(0,0)"/>
<path d="" fill="#000000" transform="translate(0,0)"/>
<path d="" fill="#000000" transform="translate(0,0)"/>
<path d="" fill="#000000" transform="translate(0,0)"/>
<path d="" fill="#000000" transform="translate(0,0)"/>
<path d="" fill="#000000" transform="translate(0,0)"/>
<path d="" fill="#000000" transform="translate(0,0)"/>
<path d="" fill="#000000" transform="translate(0,0)"/>
<path d="" fill="#000000" transform="translate(0,0)"/>
<path d="" fill="#000000" transform="translate(0,0)"/>
<path d="" fill="#000000" transform="translate(0,0)"/>
<path d="" fill="#000000" transform="translate(0,0)"/>
<path d="" fill="#000000" transform="translate(0,0)"/>
<path d="" fill="#000000" transform="translate(0,0)"/>
<path d="" fill="#000000" transform="translate(0,0)"/>
<path d="" fill="#000000" transform="translate(0,0)"/>
<path d="" fill="#000000" transform="translate(0,0)"/>
<path d="" fill="#000000" transform="translate(0,0)"/>
<path d="" fill="#000000" transform="translate(0,0)"/>
<path d="" fill="#000000" transform="translate(0,0)"/>
<path d="" fill="#000000" transform="translate(0,0)"/>
<path d="" fill="#000000" transform="translate(0,0)"/>
<path d="" fill="#000000" transform="translate(0,0)"/>
<path d="" fill="#000000" transform="translate(0,0)"/>
<path d="" fill="#000000" transform="translate(0,0)"/>
<path d="" fill="#000000" transform="translate(0,0)"/>
<path d="" fill="#000000" transform="translate(0,0)"/>
<path d="" fill="#000000" transform="translate(0,0)"/>
<path d="" fill="#000000" transform="translate(0,0)"/>
<path d="" fill="#000000" transform="translate(0,0)"/>
<path d="" fill="#000000" transform="translate(0,0)"/>
<path d="" fill="#000000" transform="translate(0,0)"/>
<path d="" fill="#000000" transform="translate(0,0)"/>
<path d="" fill="#000000" transform="translate(0,0)"/>
<path d="" fill="#000000" transform="translate(0,0)"/>
<path d="" fill="#000000" transform="translate(0,0)"/>
<path d="" fill="#000000" transform="translate(0,0)"/>
<path d="" fill="#000000" transform="translate(0,0)"/>
<path d="" fill="#000000" transform="translate(0,0)"/>
<path d="" fill="#000000" transform="translate(0,0)"/>
<path d="" fill="#000000" transform="translate(0,0)"/>
<path d="" fill="#000000" transform="translate(0,0)"/>
<path d="" fill="#000000" transform="translate(0,0)"/>
<path d="" fill="#000000" transform="translate(0,0)"/>
<path d="" fill="#000000" transform="translate(0,0)"/>
<path d="" fill="#000000" transform="translate(0,0)"/>
<path d="" fill="#000000" transform="translate(0,0)"/>
<path d="" fill="#000000" transform="translate(0,0)"/>
<path d="" fill="#000000" transform="translate(0,0)"/>
<path d="" fill="#000000" transform="translate(0,0)"/>
<path d="" fill="#000000" transform="translate(0,0)"/>
<path d="" fill="#000000" transform="translate(0,0)"/>
<path d="" fill="#000000" transform="translate(0,0)"/>
<path d="" fill="#000000" transform="translate(0,0)"/>
<path d="" fill="#000000" transform="translate(0,0)"/>
<path d="" fill="#000000" transform="translate(0,0)"/>
<path d="" fill="#000000" transform="translate(0,0)"/>
<path d="" fill="#000000" transform="translate(0,0)"/>
<path d="" fill="#000000" transform="translate(0,0)"/>
<path d="" fill="#000000" transform="translate(0,0)"/>
<path d="" fill="#000000" transform="translate(0,0)"/>
<path d="" fill="#000000" transform="translate(0,0)"/>
<path d="" fill="#000000" transform="translate(0,0)"/>
<path d="" fill="#000000" transform="translate(0,0)"/>
<path d="" fill="#000000" transform="translate(0,0)"/>
<path d="" fill="#000000" transform="translate(0,0)"/>
<path d="" fill="#000000" transform="translate(0,0)"/>
<path d="" fill="#000000" transform="translate(0,0)"/>
<path d="" fill="#000000" transform="translate(0,0)"/>
<path d="" fill="#000000" transform="translate(0,0)"/>
<path d="" fill="#000000" transform="translate(0,0)"/>
<path d="" fill="#000000" transform="translate(0,0)"/>
<path d="" fill="#000000" transform="translate(0,0)"/>
<path d="" fill="#000000" transform="translate(0,0)"/>
<path d="" fill="#000000" transform="translate(0,0)"/>
<path d="" fill="#000000" transform="translate(0,0)"/>
<path d="" fill="#000000" transform="translate(0,0)"/>
<path d="" fill="#000000" transform="translate(0,0)"/>
<path d="" fill="#000000" transform="translate(0,0)"/>
<path d="" fill="#000000" transform="translate(0,0)"/>
<path d="" fill="#000000" transform="translate(0,0)"/>
<path d="" fill="#000000" transform="translate(0,0)"/>
<path d="" fill="#000000" transform="translate(0,0)"/>
<path d="" fill="#000000" transform="translate(0,0)"/>
<path d="" fill="#000000" transform="translate(0,0)"/>
<path d="" fill="#000000" transform="translate(0,0)"/>
<path d="" fill="#000000" transform="translate(0,0)"/>
<path d="" fill="#000000" transform="translate(0,0)"/>
<path d="" fill="#000000" transform="translate(0,0)"/>
<path d="" fill="#000000" transform="translate(0,0)"/>
<path d="" fill="#000000" transform="translate(0,0)"/>
<path d="" fill="#000000" transform="translate(0,0)"/>
<path d="" fill="#000000" transform="translate(0,0)"/>
<path d="" fill="#000000" transform="translate(0,0)"/>
<path d="" fill="#000000" transform="translate(0,0)"/>
<path d="" fill="#000000" transform="translate(0,0)"/>
<path d="" fill="#000000" transform="translate(0,0)"/>
<path d="" fill="#000000" transform="translate(0,0)"/>
<path d="" fill="#000000" transform="translate(0,0)"/>
<path d="" fill="#000000" transform="translate(0,0)"/>
<path d="" fill="#000000" transform="translate(0,0)"/>
<path d="" fill="#000000" transform="translate(0,0)"/>
<path d="" fill="#000000" transform="translate(0,0)"/>
<path d="" fill="#000000" transform="translate(0,0)"/>
<path d="" fill="#000000" transform="translate(0,0)"/>
<path d="" fill="#000000" transform="translate(0,0)"/>
<path d="" fill="#000000" transform="translate(0,0)"/>
<path d="" fill="#000000" transform="translate(0,0)"/>
<path d="" fill="#000000" transform="translate(0,0)"/>
<path d="" fill="#000000" transform="translate(0,0)"/>
<path d="" fill="#000000" transform="translate(0,0)"/>
<path d="" fill="#000000" transform="translate(0,0)"/>
<path d="" fill="#000000" transform="translate(0,0)"/>
<path d="" fill="#000000" transform="translate(0,0)"/>
<path d="" fill="#000000" transform="translate(0,0)"/>
<path d="" fill="#000000" transform="translate(0,0)"/>
<path d="" fill="#000000" transform="translate(0,0)"/>
<path d="" fill="#000000" transform="translate(0,0)"/>
<path d="" fill="#000000" transform="translate(0,0)"/>
<path d="" fill="#000000" transform="translate(0,0)"/>
<path d="" fill="#000000" transform="translate(0,0)"/>
<path d="" fill="#000000" transform="translate(0,0)"/>
<path d="" fill="#000000" transform="translate(0,0)"/>
<path d="" fill="#000000" transform="translate(0,0)"/>
<path d="" fill="#000000" transform="translate(0,0)"/>
<path d="" fill="#000000" transform="translate(0,0)"/>
<path d="" fill="#000000" transform="translate(0,0)"/>
<path d="" fill="#000000" transform="translate(0,0)"/>
<path d="" fill="#000000" transform="translate(0,0)"/>
<path d="" fill="#000000" transform="translate(0,0)"/>
<path d="" fill="#000000" transform="translate(0,0)"/>
<path d="" fill="#000000" transform="translate(0,0)"/>
<path d="" fill="#000000" transform="translate(0,0)"/>
<path d="" fill="#000000" transform="translate(0,0)"/>
<path d="" fill="#000000" transform="translate(0,0)"/>
<path d="" fill="#000000" transform="translate(0,0)"/>
<path d="" fill="#000000" transform="translate(0,0)"/>
<path d="" fill="#000000" transform="translate(0,0)"/>
<path d="" fill="#000000" transform="translate(0,0)"/>
<path d="" fill="#000000" transform="translate(0,0)"/>
<path d="" fill="#000000" transform="translate(0,0)"/>
<path d="" fill="#000000" transform="translate(0,0)"/>
<path d="" fill="#000000" transform="translate(0,0)"/>
<path d="" fill="#000000" transform="translate(0,0)"/>
<path d="" fill="#000000" transform="translate(0,0)"/>
<path d="" fill="#000000" transform="translate(0,0)"/>
<path d="" fill="#000000" transform="translate(0,0)"/>
<path d="" fill="#000000" transform="translate(0,0)"/>
<path d="" fill="#000000" transform="translate(0,0)"/>
<path d="" fill="#000000" transform="translate(0,0)"/>
<path d="" fill="#000000" transform="translate(0,0)"/>
<path d="" fill="#000000" transform="translate(0,0)"/>
<path d="" fill="#000000" transform="translate(0,0)"/>
<path d="" fill="#000000" transform="translate(0,0)"/>
<path d="" fill="#000000" transform="translate(0,0)"/>
<path d="" fill="#000000" transform="translate(0,0)"/>
<path d="" fill="#000000" transform="translate(0,0)"/>
<path d="" fill="#000000" transform="translate(0,0)"/>
<path d="" fill="#000000" transform="translate(0,0)"/>
<path d="" fill="#000000" transform="translate(0,0)"/>
<path d="" fill="#000000" transform="translate(0,0)"/>
<path d="" fill="#000000" transform="translate(0,0)"/>
<path d="" fill="#000000" transform="translate(0,0)"/>
<path d="" fill="#000000" transform="translate(0,0)"/>
<path d="" fill="#000000" transform="translate(0,0)"/>
<path d="" fill="#000000" transform="translate(0,0)"/>
<path d="" fill="#000000" transform="translate(0,0)"/>
<path d="" fill="#000000" transform="translate(0,0)"/>
<path d="" fill="#000000" transform="translate(0,0)"/>
<path d="" fill="#000000" transform="translate(0,0)"/>
<path d="" fill="#000000" transform="translate(0,0)"/>
<path d="" fill="#000000" transform="translate(0,0)"/>
<path d="" fill="#000000" transform="translate(0,0)"/>
<path d="" fill="#000000" transform="translate(0,0)"/>
</svg>
