<?xml version="1.0" encoding="UTF-8"?>
<svg version="1.1" xmlns="http://www.w3.org/2000/svg" width="180" height="180">
<path d="M0 0 C2.55183497 2.22975871 4.54820685 4.72048544 6.609375 7.40625 C7.599375 6.54 8.589375 5.67375 9.609375 4.78125 C10.94123022 3.65450049 12.27463034 2.52957518 13.609375 1.40625 C14.22296875 0.86871094 14.8365625 0.33117188 15.46875 -0.22265625 C21.68081234 -5.34375723 28.24126683 -7.13394914 36.171875 -7.96875 C45.51962151 -6.94899584 53.89817063 -3.65469443 60.3984375 3.328125 C65.63749723 9.98663442 68.14855138 16.17392186 68.171875 24.59375 C68.20861328 25.27244141 68.24535156 25.95113281 68.28320312 26.65039062 C68.35930952 35.79161472 63.65074328 43.539386 57.53044128 50.0164032 C54.96211648 52.61798013 52.32570631 55.14238954 49.671875 57.65625 C47.55348527 59.69787019 45.44295795 61.74754352 43.33203125 63.796875 C42.82485062 64.28623535 42.31766998 64.7755957 41.79512024 65.27978516 C38.40825358 68.56530328 35.25698667 71.97206637 32.20336914 75.56542969 C29.38259795 78.82299053 26.34096952 81.85888577 23.296875 84.90625 C22.67748047 85.53789063 22.05808594 86.16953125 21.41992188 86.8203125 C20.52950195 87.71363281 20.52950195 87.71363281 19.62109375 88.625 C19.08959717 89.16060547 18.55810059 89.69621094 18.01049805 90.24804688 C16.609375 91.40625 16.609375 91.40625 14.609375 91.40625 C14.114375 92.89125 14.114375 92.89125 13.609375 94.40625 C11.04794057 96.37658418 9.59158769 96.40550709 6.3359375 96.26953125 C1.97388703 95.25903528 -0.31447673 93.41252377 -3.390625 90.34375 C-3.94693604 89.80991699 -4.50324707 89.27608398 -5.07641602 88.72607422 C-9.93883326 83.99956934 -14.56138845 79.04296188 -19.14794922 74.05029297 C-23.01597785 69.8613233 -26.98436881 65.79688014 -31.05859375 61.80859375 C-31.54994308 61.32575928 -32.04129242 60.8429248 -32.54753113 60.34545898 C-34.98331212 57.95319674 -37.4280504 55.57261147 -39.89038086 53.20751953 C-48.56251288 44.7085351 -53.41552062 37.60282722 -53.703125 25.28125 C-53.6136712 16.49489856 -51.39406152 8.4436986 -45.21484375 1.96875 C-31.78549064 -9.53390791 -14.30583585 -10.76218844 0 0 Z M13.609375 13.40625 C14.269375 14.72625 14.929375 16.04625 15.609375 17.40625 C20.29681398 17.12216279 22.59007325 14.95557058 25.86328125 11.87890625 C29.8852621 8.4867658 33.23759652 8.01720044 38.3671875 8.16015625 C43.25153239 8.69624288 46.30945128 10.84202265 49.421875 14.46875 C52.96650426 19.22868072 53.23845175 22.57555353 52.609375 28.40625 C50.79341521 35.16057526 45.86083629 39.41121359 40.8515625 44.01171875 C37.64064037 47.44080458 36.66026223 50.05773828 36.484375 54.71875 C36.525625 55.605625 36.566875 56.4925 36.609375 57.40625 C41.05684433 55.24990123 43.66694575 52.2291285 46.77734375 48.515625 C48.52161688 46.50729347 50.35411945 44.72004319 52.296875 42.90625 C57.76669571 37.41179045 59.82975017 32.71770502 60.109375 24.90625 C59.80759741 16.73939401 57.67229934 12.08241299 51.734375 6.53125 C37.98869858 -4.52067664 24.04531899 1.97111988 13.609375 13.40625 Z M28.609375 24.40625 C27.31417505 26.57245544 27.31417505 26.57245544 26.609375 28.40625 C29.084375 31.37625 29.084375 31.37625 31.609375 34.40625 C36.23900212 33.55077542 38.9107779 31.20005697 41.609375 27.40625 C42.27824673 24.23501903 42.27824673 24.23501903 41.609375 21.40625 C39.73973502 19.14326563 39.73973502 19.14326563 36.796875 18.96875 C32.55668755 19.55073651 31.27874378 21.14368815 28.609375 24.40625 Z " fill="#3C743B" transform="translate(83.390625,37.59375)"/>
<path d="M0 0 C2.74571135 1.92660722 5.05683183 4.2672617 7.43359375 6.625 C8.16710556 7.33430664 8.90061737 8.04361328 9.65635681 8.77441406 C12.11971273 11.16767299 14.56149496 13.58143525 17 16 C17.86699524 16.85625977 18.73399048 17.71251953 19.6272583 18.59472656 C25.65865536 24.55792514 31.65391811 30.55650789 37.63690186 36.5682373 C40.05613791 38.99793459 42.47841558 41.42459604 44.90039062 43.8515625 C49.60297338 48.56500962 54.30267224 53.28131613 59 58 C60.11812749 57.04910439 61.23519044 56.09695694 62.35180664 55.14428711 C62.97398575 54.6141954 63.59616486 54.0841037 64.23719788 53.53794861 C66.4098727 51.64240844 68.4296735 49.63105471 70.4375 47.5625 C73.14613346 44.81738663 75.87534609 42.18590893 78.8125 39.6875 C84.02318946 35.21970001 88.78799832 30.29721025 93.60229492 25.41162109 C94.95439637 24.04605768 96.32072778 22.69462951 97.6875 21.34375 C99.51523522 19.49131566 101.1815165 17.64525146 102.8125 15.625 C105.64005408 12.27274517 108.76722944 9.46588376 112.1171875 6.64453125 C114.21852667 4.87088446 114.21852667 4.87088446 116.6875 2.0625 C119 0 119 0 121.5625 -0.5625 C124.82554994 0.19051153 126.03541251 1.30778751 128 4 C128.47817993 6.22940063 128.47817993 6.22940063 128 9 C126.08515049 11.41846908 124.21685486 13.48689381 122.03662109 15.64208984 C121.08547424 16.61119797 121.08547424 16.61119797 120.1151123 17.59988403 C118.01394792 19.73326874 115.89475548 21.84760432 113.7734375 23.9609375 C112.30748418 25.43533611 110.84212946 26.91033011 109.37734985 28.38589478 C106.30374561 31.47590306 103.22075047 34.55616136 100.13134766 37.63037109 C96.16954773 41.57487502 92.23564344 45.5459484 88.30878258 49.52519798 C85.2892852 52.57773928 82.25374844 55.61392074 79.21327591 58.6455574 C77.75577299 60.10342086 76.30374593 61.56677988 74.85731125 63.03562546 C72.83442033 65.08567173 70.79058483 67.11224288 68.73974609 69.13427734 C68.14416901 69.74716614 67.54859192 70.36005493 66.93496704 70.99151611 C64.31472024 73.53342989 62.68801618 74.94634223 58.98753357 75.23493958 C54.9600639 73.57012759 52.48746191 71.18770075 49.4597168 68.10668945 C48.83621841 67.49195267 48.21272003 66.87721588 47.57032776 66.24385071 C45.51721815 64.21270879 43.48289532 62.16386681 41.44921875 60.11328125 C40.02602449 58.69345582 38.60208876 57.27437327 37.17744446 55.85600281 C34.19627371 52.88219992 31.22432471 49.89955057 28.25854492 46.91040039 C24.45774817 43.08111725 20.63494581 39.27471913 16.80494976 35.47466755 C13.86108728 32.54887959 10.92924647 29.61127819 8.00089455 26.66997337 C6.59595474 25.26170005 5.1872964 23.85712629 3.77487755 22.45635414 C1.80199523 20.49618168 -0.15412945 18.52067226 -2.10668945 16.5402832 C-2.69211517 15.96497864 -3.27754089 15.38967407 -3.88070679 14.79693604 C-7.20658557 11.3827833 -8.94510143 8.9958812 -9 4 C-6.44133559 0.26041356 -4.44388189 -0.81365224 0 0 Z " fill="#3C753B" transform="translate(31,86)"/>
<path d="M0 0 C4.10488479 2.82780952 7.56757505 6.44765011 9.8125 10.9375 C10.63697185 17.45217918 9.7060321 22.6183059 5.8125 27.9375 C3.30877112 30.60679804 0.73218452 33.14586516 -1.9453125 35.640625 C-4.01381249 37.75957621 -4.9284133 39.32824374 -6.1875 41.9375 C-7.81640625 43.54296875 -7.81640625 43.54296875 -9.75 45.125 C-12.96063428 47.81797767 -15.86469433 50.64903598 -18.75 53.6875 C-23.39804616 58.3674367 -26.7754561 60.40227743 -33.375 61.4375 C-39.01528939 60.69778992 -44.2545937 58.78196797 -49.1875 55.9375 C-51.69775756 52.64692778 -51.51879593 49.15888526 -51.5625 45.125 C-51.59085937 43.94292969 -51.61921875 42.76085937 -51.6484375 41.54296875 C-50.68693039 34.02202756 -45.84378872 29.1424745 -40.6640625 24.015625 C-40.04026703 23.38895935 -39.41647156 22.7622937 -38.77377319 22.11663818 C-37.4612635 20.80209855 -36.14500391 19.49129334 -34.82519531 18.18408203 C-32.81477792 16.18975969 -30.82090831 14.17989456 -28.828125 12.16796875 C-27.54523181 10.88705765 -26.26140849 9.6070773 -24.9765625 8.328125 C-24.38573883 7.73122864 -23.79491516 7.13433228 -23.18618774 6.51934814 C-16.26978787 -0.2817477 -9.46605505 -3.15535168 0 0 Z M-15.1875 15.9375 C-16.48269995 18.10370544 -16.48269995 18.10370544 -17.1875 19.9375 C-14.7125 22.9075 -14.7125 22.9075 -12.1875 25.9375 C-7.55787288 25.08202542 -4.8860971 22.73130697 -2.1875 18.9375 C-1.51862827 15.76626903 -1.51862827 15.76626903 -2.1875 12.9375 C-4.05713998 10.67451563 -4.05713998 10.67451563 -7 10.5 C-11.24018745 11.08198651 -12.51813122 12.67493815 -15.1875 15.9375 Z " fill="#589F55" transform="translate(127.1875,46.0625)"/>
<path d="M0 0 C2.57576108 1.08453098 3.84118752 1.65891779 5.375 4 C5.86338371 6.94954892 5.99818681 9.04734789 4.31777954 11.6161499 C2.75607301 13.3974148 1.12249497 15.05767347 -0.57421875 16.7109375 C-1.18384964 17.32393707 -1.79348053 17.93693665 -2.42158508 18.56851196 C-3.71153288 19.85816129 -5.00895615 21.14037084 -6.31323242 22.41552734 C-8.30754809 24.37014665 -10.27083655 26.35243838 -12.23242188 28.33984375 C-13.49043939 29.59030281 -14.75015034 30.83906097 -16.01171875 32.0859375 C-16.59837814 32.67958099 -17.18503754 33.27322449 -17.78947449 33.88485718 C-20.26060332 36.27222534 -21.9505552 37.88427215 -25.39379883 38.47509766 C-28.55447737 37.80208305 -29.73638494 36.58810212 -31.625 34 C-32.1875 31.625 -32.1875 31.625 -31.625 29 C-28.6073512 24.66212986 -24.94500839 21.46963239 -20.94140625 18.05859375 C-15.33536065 13.07649252 -10.09341717 7.62382265 -4.95703125 2.1640625 C-2.625 0 -2.625 0 0 0 Z " fill="#3C753B" transform="translate(157.625,107)"/>
<path d="M0 0 C4.69796003 1.39921192 7.2628136 4.07872911 10.375 7.6875 C11.34657529 8.77960845 12.31922827 9.87075912 13.29296875 10.9609375 C13.75880371 11.48655273 14.22463867 12.01216797 14.70458984 12.55371094 C17.97431671 16.20426917 21.37683485 19.69916552 25.203125 22.765625 C30.83384069 27.29382293 30.83384069 27.29382293 31.75 31.1875 C30.83355949 34.6241519 29.90762193 35.95680621 27 38 C24.76879883 38.47338867 24.76879883 38.47338867 22 38 C19.53082885 36.28524427 17.48955372 34.18989471 15.38671875 32.05078125 C14.77230423 31.44115036 14.15788971 30.83151947 13.52485657 30.20341492 C12.23038501 28.91234279 10.94219426 27.6149469 9.65991211 26.31176758 C7.69445219 24.31954685 5.70377433 22.35538058 3.70898438 20.39257812 C2.45412287 19.13441254 1.2008133 17.87469677 -0.05078125 16.61328125 C-0.6475618 16.02662186 -1.24434235 15.43996246 -1.85920715 14.83552551 C-5.888856 10.68922433 -5.888856 10.68922433 -6.45385742 7.18554688 C-5.65978481 3.36169641 -3.06089871 2.23190531 0 0 Z " fill="#3B743A" transform="translate(24,107)"/>
<path d="M0 0 C4.1424367 1.38081223 5.32203099 3.59825558 8 7 C5.25625453 9.84289402 2.49933292 12.67226859 -0.27026367 15.48999023 C-1.67100334 16.92065096 -3.06116382 18.36164475 -4.45117188 19.80273438 C-5.33740234 20.70185547 -6.22363281 21.60097656 -7.13671875 22.52734375 C-7.94842529 23.35999756 -8.76013184 24.19265137 -9.59643555 25.05053711 C-12.1613419 27.13085984 -13.75332637 27.67406934 -17 28 C-18.5625 26.3125 -18.5625 26.3125 -20 24 C-19.7219609 19.46339931 -17.93449487 17.45940891 -14.74609375 14.35546875 C-13.46508789 13.09379883 -13.46508789 13.09379883 -12.15820312 11.80664062 C-11.26037109 10.94232422 -10.36253906 10.07800781 -9.4375 9.1875 C-8.53580078 8.30384766 -7.63410156 7.42019531 -6.70507812 6.50976562 C-4.47877434 4.33057938 -2.24367741 2.16127083 0 0 Z " fill="#3C753B" transform="translate(109,66)"/>
<path d="M0 0 C0 3.78168109 -0.85318491 4.22142646 -3.46484375 6.8359375 C-4.54088867 7.93808594 -4.54088867 7.93808594 -5.63867188 9.0625 C-7.16537745 10.59828539 -8.69401084 12.13215688 -10.22460938 13.6640625 C-10.94326172 14.40140625 -11.66191406 15.13875 -12.40234375 15.8984375 C-13.06741943 16.56536621 -13.73249512 17.23229492 -14.41772461 17.91943359 C-16.2239343 20.29445582 -16.64031566 22.06699286 -17 25 C-13.11863416 24.44387545 -11.37243082 22.72326862 -8.671875 19.96484375 C-7.47304687 18.75151367 -7.47304687 18.75151367 -6.25 17.51367188 C-5.425 16.66353516 -4.6 15.81339844 -3.75 14.9375 C-2.90953125 14.08349609 -2.0690625 13.22949219 -1.203125 12.34960938 C0.87147597 10.23964588 2.93875832 8.12300292 5 6 C5.99 6.33 6.98 6.66 8 7 C5.25625453 9.84289402 2.49933292 12.67226859 -0.27026367 15.48999023 C-1.67100334 16.92065096 -3.06116382 18.36164475 -4.45117188 19.80273438 C-5.33740234 20.70185547 -6.22363281 21.60097656 -7.13671875 22.52734375 C-7.94842529 23.35999756 -8.76013184 24.19265137 -9.59643555 25.05053711 C-12.1613419 27.13085984 -13.75332637 27.67406934 -17 28 C-18.5625 26.3125 -18.5625 26.3125 -20 24 C-19.7219609 19.46339931 -17.93449487 17.45940891 -14.74609375 14.35546875 C-13.46508789 13.09379883 -13.46508789 13.09379883 -12.15820312 11.80664062 C-11.26037109 10.94232422 -10.36253906 10.07800781 -9.4375 9.1875 C-8.53580078 8.30384766 -7.63410156 7.42019531 -6.70507812 6.50976562 C-4.47877434 4.33057938 -2.24367741 2.16127083 0 0 Z " fill="#478A46" transform="translate(109,66)"/>
<path d="M0 0 C0.66 0.33 1.32 0.66 2 1 C1.06933716 1.90709717 1.06933716 1.90709717 0.11987305 2.83251953 C-2.19535105 5.0963809 -4.50356726 7.36710246 -6.80737305 9.64257812 C-7.80269803 10.62288847 -8.8007082 11.60048069 -9.80151367 12.57519531 C-11.2459385 13.98291577 -12.67972018 15.40153041 -14.11328125 16.8203125 C-14.97735596 17.66867676 -15.84143066 18.51704102 -16.73168945 19.39111328 C-20.9561221 24.24982464 -22.36288256 28.51249822 -22.6875 34.875 C-22.75324219 36.02742188 -22.81898437 37.17984375 -22.88671875 38.3671875 C-22.92410156 39.23601562 -22.96148437 40.10484375 -23 41 C-25.54406562 38.45593438 -25.32580106 37.40748394 -25.375 33.875 C-25.06920801 23.15838077 -19.32319653 17.95530229 -11.91796875 10.8515625 C-9.59798427 8.619473 -7.47641977 6.30850758 -5.4375 3.8125 C-3 1 -3 1 0 0 Z " fill="#478B46" transform="translate(99,56)"/>
<path d="M0 0 C0.66 0.33 1.32 0.66 2 1 C-0.29745741 3.69951246 -2.63660917 6.35803458 -5 9 C-5.95519531 10.07507813 -5.95519531 10.07507813 -6.9296875 11.171875 C-12.3540742 16.96660135 -17.56342369 20.36620338 -25.5 21.5 C-30.06133677 20.84838046 -34.02496499 19.33725235 -38 17 C-38.33 16.34 -38.66 15.68 -39 15 C-36.35652976 15.45316633 -34.08148874 15.96354451 -31.625 17.0625 C-27.68100458 18.47106979 -24.16650557 18.77058045 -20.15356445 17.34326172 C-14.59311395 14.6909729 -10.71225685 11.19727547 -6.5 6.75 C-5.86835937 6.1003125 -5.23671875 5.450625 -4.5859375 4.78125 C-3.04763961 3.19633703 -1.51956494 1.60284632 0 0 Z " fill="#468945" transform="translate(119,88)"/>
</svg>
